<svg width="117" height="23" viewBox="0 0 117 23" fill="none" xmlns="http://www.w3.org/2000/svg">
<path fill-rule="evenodd" clip-rule="evenodd" d="M0.113143 8.78958L10.6352 22.0033C10.8025 22.2135 11.0877 22.2894 11.3374 22.1903L15.9856 20.3458C16.2358 20.2465 16.3914 19.9949 16.3684 19.7266L16.0313 15.7976C15.5116 16.1818 15.1185 16.4452 14.3105 16.8996C14.0588 17.0412 13.74 16.9519 13.5985 16.7002C13.4569 16.4485 13.5462 16.1297 13.7979 15.9882C14.761 15.4465 15.0749 15.2103 15.8552 14.6233L15.926 14.5701L15.7174 12.1379C14.2438 13.3832 12.983 14.1517 10.9626 14.8756C10.6908 14.973 10.3914 14.8315 10.294 14.5597C10.1966 14.2878 10.338 13.9885 10.6099 13.8911C12.7367 13.1291 13.9374 12.3356 15.6068 10.8486L15.39 8.32109C12.9803 10.5654 10.7842 11.7602 7.55363 12.5387C7.27289 12.6064 6.99046 12.4336 6.92281 12.1529C6.85517 11.8721 7.02791 11.5897 7.30865 11.5221C10.6033 10.7282 12.7283 9.5002 15.2751 6.9816L14.8821 2.40075C13.8916 -2.07812 1.96181 0.253425 1.97889 4.93597C1.97929 5.04426 2.0128 5.15131 2.0681 5.24442C2.68312 6.27985 3.23365 6.97552 4.21841 8.08917C4.3737 8.26478 4.60873 8.35024 4.84023 8.31333C7.27034 7.92594 8.56368 7.39158 10.5684 6.10445L10.3121 3.50533C10.2915 3.29585 10.0436 3.19496 9.87927 3.32646C7.90775 4.90367 5.95476 5.77934 3.77562 5.21941C3.51707 5.15297 3.27116 4.97909 3.24682 4.71326C3.06205 2.69556 9.92109 -0.0425177 12.9937 1.77608C13.343 1.98283 13.6095 2.32463 13.665 2.72672C14.1738 6.41031 4.21866 11.1435 0.935085 8.11762C0.771194 7.96659 0.537479 7.90208 0.329936 7.98329C0.00469062 8.11056 -0.104419 8.51636 0.113143 8.78958Z" fill="#8BEA7C"/>
<path d="M33.7279 8.34512H31.1726C31.0997 7.92607 30.9654 7.55484 30.7695 7.23144C30.5736 6.90349 30.3299 6.62564 30.0384 6.39789C29.7469 6.17014 29.4144 5.99933 29.0409 5.88546C28.672 5.76703 28.2734 5.70782 27.8452 5.70782C27.0846 5.70782 26.4104 5.89913 25.8228 6.28174C25.2353 6.6598 24.7752 7.2155 24.4427 7.94884C24.1102 8.67763 23.9439 9.56812 23.9439 10.6203C23.9439 11.6907 24.1102 12.5926 24.4427 13.3259C24.7798 14.0547 25.2398 14.6059 25.8228 14.9794C26.4104 15.3483 27.0823 15.5328 27.8384 15.5328C28.2575 15.5328 28.6492 15.4781 29.0136 15.3688C29.3825 15.2549 29.7128 15.0887 30.0043 14.87C30.3003 14.6514 30.5486 14.3827 30.749 14.0638C30.954 13.745 31.0952 13.3806 31.1726 12.9706L33.7279 12.9843C33.6323 13.6493 33.425 14.2734 33.1062 14.8564C32.7919 15.4394 32.3797 15.9541 31.8695 16.4005C31.3594 16.8423 30.7627 17.1885 30.0794 17.439C29.3962 17.685 28.6378 17.808 27.8042 17.808C26.5744 17.808 25.4767 17.5233 24.511 16.9539C23.5454 16.3846 22.7847 15.5624 22.229 14.4874C21.6733 13.4125 21.3955 12.1234 21.3955 10.6203C21.3955 9.11262 21.6756 7.82358 22.2358 6.75317C22.7961 5.67821 23.5591 4.85605 24.5247 4.28668C25.4903 3.71732 26.5835 3.43263 27.8042 3.43263C28.5831 3.43263 29.3074 3.54195 29.9769 3.76059C30.6465 3.97923 31.2432 4.30035 31.767 4.72396C32.2908 5.14301 32.7213 5.65771 33.0583 6.26808C33.4 6.87388 33.6232 7.56623 33.7279 8.34512ZM38.0284 3.62394V17.6167H35.5551V3.62394H38.0284ZM40.187 17.6167V7.12212H42.6603V17.6167H40.187ZM41.4305 5.63266C41.0388 5.63266 40.7017 5.50285 40.4193 5.24322C40.1369 4.97903 39.9957 4.66246 39.9957 4.29351C39.9957 3.92001 40.1369 3.60344 40.4193 3.34381C40.7017 3.07963 41.0388 2.94753 41.4305 2.94753C41.8268 2.94753 42.1638 3.07963 42.4417 3.34381C42.7241 3.60344 42.8653 3.92001 42.8653 4.29351C42.8653 4.66246 42.7241 4.97903 42.4417 5.24322C42.1638 5.50285 41.8268 5.63266 41.4305 5.63266ZM49.3966 17.8216C48.3489 17.8216 47.4493 17.5916 46.6978 17.1316C45.9508 16.6715 45.3746 16.0361 44.9692 15.2253C44.5683 14.41 44.3679 13.4717 44.3679 12.4104C44.3679 11.3445 44.5729 10.4039 44.9828 9.58861C45.3928 8.76873 45.9713 8.13104 46.7183 7.67555C47.4698 7.2155 48.358 6.98548 49.3829 6.98548C50.2347 6.98548 50.9885 7.14262 51.6444 7.45691C52.3049 7.76665 52.831 8.2062 53.2227 8.77556C53.6144 9.34037 53.8376 10.0008 53.8923 10.757H51.5283C51.4326 10.2514 51.2049 9.83003 50.845 9.49296C50.4897 9.15134 50.0138 8.98053 49.4171 8.98053C48.9115 8.98053 48.4674 9.11718 48.0847 9.39048C47.7021 9.65922 47.4038 10.0464 47.1897 10.552C46.9802 11.0576 46.8754 11.6634 46.8754 12.3694C46.8754 13.0845 46.9802 13.6994 47.1897 14.2141C47.3992 14.7243 47.693 15.1183 48.0711 15.3961C48.4537 15.6694 48.9024 15.8061 49.4171 15.8061C49.7815 15.8061 50.1071 15.7378 50.3941 15.6011C50.6856 15.4599 50.9293 15.2572 51.1252 14.993C51.321 14.7288 51.4554 14.4077 51.5283 14.0297H53.8923C53.8331 14.7721 53.6144 15.4303 53.2364 16.0042C52.8583 16.5736 52.3436 17.02 51.6922 17.3434C51.0409 17.6622 50.2757 17.8216 49.3966 17.8216ZM57.7931 14.3235L57.7863 11.3377H58.1825L61.954 7.12212H64.8441L60.2049 12.2874H59.6925L57.7931 14.3235ZM55.5384 17.6167V3.62394H58.0117V17.6167H55.5384ZM62.1248 17.6167L58.7086 12.8408L60.3757 11.0986L65.0832 17.6167H62.1248ZM77.7158 3.62394V17.6167H75.4612L68.8679 8.08549H68.7518V17.6167H66.2169V3.62394H68.4853L75.0717 13.162H75.1947V3.62394H77.7158ZM84.6297 17.8216C83.5776 17.8216 82.6689 17.603 81.9036 17.1657C81.143 16.7239 80.5576 16.0999 80.1477 15.2937C79.7378 14.4829 79.5328 13.5286 79.5328 12.4309C79.5328 11.3514 79.7378 10.4039 80.1477 9.58861C80.5622 8.76873 81.1407 8.13104 81.8831 7.67555C82.6256 7.2155 83.4978 6.98548 84.4999 6.98548C85.1467 6.98548 85.7571 7.09024 86.331 7.29976C86.9095 7.50474 87.4196 7.82358 87.8615 8.2563C88.3078 8.68902 88.6586 9.24016 88.9137 9.90974C89.1687 10.5748 89.2963 11.3673 89.2963 12.2874V13.0458H80.6943V11.3787H86.9254C86.9209 10.905 86.8184 10.4837 86.618 10.1147C86.4176 9.7412 86.1374 9.44741 85.7776 9.23333C85.4223 9.01925 85.0078 8.91221 84.5341 8.91221C84.0285 8.91221 83.5844 9.03519 83.2018 9.28116C82.8192 9.52257 82.5208 9.84141 82.3067 10.2377C82.0972 10.6294 81.9902 11.0599 81.9856 11.529V12.9843C81.9856 13.5947 82.0972 14.1185 82.3204 14.5558C82.5436 14.9885 82.8556 15.321 83.2564 15.5533C83.6573 15.781 84.1264 15.8949 84.6639 15.8949C85.0237 15.8949 85.3494 15.8448 85.6409 15.7446C85.9325 15.6398 86.1853 15.4872 86.3993 15.2868C86.6134 15.0864 86.7751 14.8382 86.8844 14.5421L89.1938 14.8017C89.048 15.4121 88.7702 15.945 88.3602 16.4005C87.9548 16.8514 87.4356 17.2022 86.8024 17.4527C86.1693 17.6987 85.4451 17.8216 84.6297 17.8216ZM93.1134 17.6167L90.1481 7.12212H92.6693L94.514 14.5011H94.6097L96.4954 7.12212H98.9892L100.875 14.4601H100.977L102.795 7.12212H105.323L102.351 17.6167H99.775L97.8072 10.5247H97.6637L95.696 17.6167H93.1134ZM114.959 9.89607L112.705 10.142C112.641 9.91429 112.529 9.70021 112.37 9.49979C112.215 9.29938 112.006 9.13768 111.741 9.01469C111.477 8.89171 111.154 8.83022 110.771 8.83022C110.257 8.83022 109.824 8.94182 109.473 9.16501C109.127 9.3882 108.956 9.67744 108.961 10.0327C108.956 10.3379 109.068 10.5861 109.295 10.7775C109.528 10.9688 109.91 11.1259 110.443 11.2489L112.233 11.6315C113.226 11.8456 113.964 12.1849 114.447 12.6495C114.934 13.1141 115.18 13.7222 115.185 14.4738C115.18 15.1342 114.987 15.7173 114.604 16.2229C114.226 16.7239 113.7 17.1156 113.026 17.398C112.352 17.6804 111.577 17.8216 110.703 17.8216C109.418 17.8216 108.384 17.5529 107.601 17.0154C106.818 16.4734 106.351 15.7195 106.2 14.7539L108.612 14.5216C108.721 14.9953 108.954 15.3529 109.309 15.5943C109.664 15.8357 110.127 15.9564 110.696 15.9564C111.284 15.9564 111.755 15.8357 112.11 15.5943C112.47 15.3529 112.65 15.0545 112.65 14.6992C112.65 14.3986 112.534 14.1504 112.302 13.9545C112.074 13.7586 111.719 13.6083 111.236 13.5036L109.446 13.1278C108.439 12.9183 107.694 12.5653 107.212 12.0688C106.729 11.5677 106.49 10.9346 106.494 10.1694C106.49 9.52257 106.665 8.96231 107.02 8.4886C107.38 8.01033 107.879 7.64138 108.517 7.38175C109.159 7.11757 109.899 6.98548 110.737 6.98548C111.967 6.98548 112.935 7.24738 113.641 7.7712C114.351 8.29502 114.791 9.00331 114.959 9.89607Z" fill="white"/>
</svg>
