<svg width="18" height="14" viewBox="0 0 18 14" fill="none" xmlns="http://www.w3.org/2000/svg">
<path d="M1.57791 13.67C1.1281 13.67 0.752827 13.5196 0.452087 13.2189C0.151347 12.9181 0.000650953 12.5426 0 12.0921V1.57791C0 1.1281 0.150696 0.752826 0.452087 0.452086C0.753478 0.151346 1.12843 0.000650952 1.57693 0H15.9988C16.4479 0 16.8229 0.150695 17.1236 0.452086C17.4244 0.753477 17.5751 1.12875 17.5757 1.57791V12.0931C17.5757 12.5422 17.425 12.9175 17.1236 13.2189C16.8222 13.5203 16.4473 13.6706 15.9988 13.67H1.57791ZM8.78786 6.94827L16.5993 1.84057L16.2985 0.976428L8.78786 5.85857L1.27717 0.976428L0.976429 1.84057L8.78786 6.94827Z" fill="#090F1F"/>
</svg>
