<svg width="88" height="88" viewBox="0 0 88 88" fill="none" xmlns="http://www.w3.org/2000/svg">
<path d="M80.7692 0H6.92308C5.08696 0 3.32605 0.729394 2.02772 2.02772C0.729394 3.32605 0 5.08696 0 6.92308V80.7692C0 82.6053 0.729394 84.3662 2.02772 85.6646C3.32605 86.9629 5.08696 87.6923 6.92308 87.6923H80.7692C82.6053 87.6923 84.3662 86.9629 85.6646 85.6646C86.9629 84.3662 87.6923 82.6053 87.6923 80.7692V6.92308C87.6923 5.08696 86.9629 3.32605 85.6646 2.02772C84.3662 0.729394 82.6053 0 80.7692 0ZM74.5385 9.92308C74.9698 9.50025 75.5498 9.26341 76.1538 9.26341C76.7579 9.26341 77.3379 9.50025 77.7692 9.92308C78.0966 10.2439 78.321 10.655 78.4138 11.1039C78.5066 11.5528 78.4636 12.0192 78.2903 12.4435C78.117 12.8679 77.8212 13.231 77.4407 13.4867C77.0602 13.7423 76.6122 13.8788 76.1538 13.8788C75.6955 13.8788 75.2475 13.7423 74.867 13.4867C74.4865 13.231 74.1907 12.8679 74.0174 12.4435C73.8441 12.0192 73.8011 11.5528 73.8939 11.1039C73.9867 10.655 74.2111 10.2439 74.5385 9.92308ZM65.3077 9.92308C65.7391 9.50025 66.319 9.26341 66.9231 9.26341C67.5271 9.26341 68.1071 9.50025 68.5385 9.92308C68.7574 10.1313 68.9318 10.3819 69.0509 10.6596C69.17 10.9373 69.2315 11.2363 69.2315 11.5385C69.2315 11.8406 69.17 12.1396 69.0509 12.4173C68.9318 12.695 68.7574 12.9456 68.5385 13.1538C68.3443 13.3884 68.0886 13.5642 67.8 13.6615C67.5254 13.7887 67.2256 13.8518 66.9231 13.8462C66.4714 13.8398 66.0315 13.701 65.658 13.4471C65.2844 13.1931 64.9936 12.835 64.8216 12.4173C64.6496 11.9996 64.604 11.5407 64.6904 11.0973C64.7768 10.6539 64.9914 10.2456 65.3077 9.92308ZM56.0769 9.92308C56.2711 9.68851 56.5268 9.5127 56.8154 9.41538C57.2349 9.24652 57.6947 9.20461 58.1378 9.29487C58.5809 9.38513 58.9877 9.60358 59.3077 9.92308C59.5296 10.129 59.7059 10.3791 59.8252 10.6573C59.9444 10.9356 60.004 11.2358 60 11.5385C60.0103 11.8414 59.9469 12.1423 59.8154 12.4154C59.7181 12.7039 59.5423 12.9597 59.3077 13.1538C59.0995 13.3728 58.8489 13.5472 58.5712 13.6663C58.2935 13.7854 57.9945 13.8468 57.6923 13.8468C57.3901 13.8468 57.0911 13.7854 56.8134 13.6663C56.5357 13.5472 56.2852 13.3728 56.0769 13.1538C55.8424 12.9597 55.6665 12.7039 55.5692 12.4154C55.4377 12.1423 55.3743 11.8414 55.3846 11.5385C55.3806 11.2358 55.4402 10.9356 55.5594 10.6573C55.6787 10.3791 55.855 10.129 56.0769 9.92308ZM83.0769 80.7692C83.0769 81.3813 82.8338 81.9682 82.401 82.401C81.9682 82.8338 81.3813 83.0769 80.7692 83.0769H6.92308C6.31104 83.0769 5.72407 82.8338 5.29129 82.401C4.85852 81.9682 4.61538 81.3813 4.61538 80.7692V23.0769H83.0769V80.7692ZM41.5385 64.6154H46.1538C47.99 64.6154 49.7509 63.886 51.0492 62.5877C52.3475 61.2893 53.0769 59.5284 53.0769 57.6923V39.2308C53.0769 37.3947 52.3475 35.6337 51.0492 34.3354C49.7509 33.0371 47.99 32.3077 46.1538 32.3077H41.5385C39.7023 32.3077 37.9414 33.0371 36.6431 34.3354C35.3448 35.6337 34.6154 37.3947 34.6154 39.2308V57.6923C34.6154 59.5284 35.3448 61.2893 36.6431 62.5877C37.9414 63.886 39.7023 64.6154 41.5385 64.6154ZM39.2308 39.2308C39.2308 38.6187 39.4739 38.0318 39.9067 37.599C40.3395 37.1662 40.9264 36.9231 41.5385 36.9231H46.1538C46.7659 36.9231 47.3529 37.1662 47.7856 37.599C48.2184 38.0318 48.4615 38.6187 48.4615 39.2308V57.6923C48.4615 58.3043 48.2184 58.8913 47.7856 59.3241C47.3529 59.7569 46.7659 60 46.1538 60H41.5385C40.9264 60 40.3395 59.7569 39.9067 59.3241C39.4739 58.8913 39.2308 58.3043 39.2308 57.6923V39.2308ZM12 54.4985C11.7841 54.222 11.6341 53.9001 11.5613 53.557C11.4886 53.2139 11.4949 52.8587 11.58 52.5185L16.1954 34.0569C16.3435 33.4626 16.7216 32.9515 17.2466 32.636C17.7715 32.3205 18.4003 32.2265 18.9946 32.3746C19.5889 32.5227 20.1 32.9009 20.4155 33.4258C20.731 33.9508 20.825 34.5796 20.6769 35.1738L16.7723 50.7692H25.3523V34.6154C25.3523 34.0033 25.5954 33.4164 26.0282 32.9836C26.461 32.5508 27.048 32.3077 27.66 32.3077C28.272 32.3077 28.859 32.5508 29.2918 32.9836C29.7246 33.4164 29.9677 34.0033 29.9677 34.6154V62.3077C29.9677 62.9197 29.7246 63.5067 29.2918 63.9395C28.859 64.3723 28.272 64.6154 27.66 64.6154C27.048 64.6154 26.461 64.3723 26.0282 63.9395C25.5954 63.5067 25.3523 62.9197 25.3523 62.3077V55.3846H13.8138C13.4641 55.384 13.1191 55.3039 12.8049 55.1504C12.4907 54.9969 12.2154 54.774 12 54.4985ZM58.1815 54.4985C57.9665 54.2216 57.8173 53.8995 57.7453 53.5564C57.6733 53.2133 57.6805 52.8584 57.7662 52.5185L62.3815 34.0569C62.541 33.4756 62.9215 32.9797 63.4418 32.6753C63.9621 32.371 64.5808 32.2822 65.1657 32.4282C65.7505 32.5741 66.2551 32.943 66.5714 33.4561C66.8878 33.9692 66.9908 34.5858 66.8585 35.1738L62.9585 50.7692H71.5385V34.6154C71.5385 34.0033 71.7816 33.4164 72.2144 32.9836C72.6471 32.5508 73.2341 32.3077 73.8462 32.3077C74.4582 32.3077 75.0452 32.5508 75.4779 32.9836C75.9107 33.4164 76.1538 34.0033 76.1538 34.6154V62.3077C76.1538 62.9197 75.9107 63.5067 75.4779 63.9395C75.0452 64.3723 74.4582 64.6154 73.8462 64.6154C73.2341 64.6154 72.6471 64.3723 72.2144 63.9395C71.7816 63.5067 71.5385 62.9197 71.5385 62.3077V55.3846H60C59.6487 55.3854 59.3019 55.306 58.986 55.1524C58.67 54.9989 58.3933 54.7752 58.1769 54.4985H58.1815ZM53.0769 69.2308C53.689 69.2308 54.2759 69.4739 54.7087 69.9067C55.1415 70.3394 55.3846 70.9264 55.3846 71.5385C55.3846 72.1505 55.1415 72.7375 54.7087 73.1702C54.2759 73.603 53.689 73.8462 53.0769 73.8462H48.4615C47.8495 73.8462 47.2625 73.603 46.8298 73.1702C46.397 72.7375 46.1538 72.1505 46.1538 71.5385C46.1538 70.9264 46.397 70.3394 46.8298 69.9067C47.2625 69.4739 47.8495 69.2308 48.4615 69.2308H53.0769ZM32.3077 71.5385C32.3077 70.9264 32.5508 70.3394 32.9836 69.9067C33.4164 69.4739 34.0033 69.2308 34.6154 69.2308H39.2308C39.8428 69.2308 40.4298 69.4739 40.8626 69.9067C41.2953 70.3394 41.5385 70.9264 41.5385 71.5385C41.5385 72.1505 41.2953 72.7375 40.8626 73.1702C40.4298 73.603 39.8428 73.8462 39.2308 73.8462H34.6154C34.0033 73.8462 33.4164 73.603 32.9836 73.1702C32.5508 72.7375 32.3077 72.1505 32.3077 71.5385ZM27.6923 71.5385C27.6923 72.1505 27.4492 72.7375 27.0164 73.1702C26.5836 73.603 25.9967 73.8462 25.3846 73.8462H20.7692C20.1572 73.8462 19.5702 73.603 19.1374 73.1702C18.7047 72.7375 18.4615 72.1505 18.4615 71.5385C18.4615 70.9264 18.7047 70.3394 19.1374 69.9067C19.5702 69.4739 20.1572 69.2308 20.7692 69.2308H25.3846C25.9967 69.2308 26.5836 69.4739 27.0164 69.9067C27.4492 70.3394 27.6923 70.9264 27.6923 71.5385ZM69.2308 71.5385C69.2308 72.1505 68.9876 72.7375 68.5549 73.1702C68.1221 73.603 67.5351 73.8462 66.9231 73.8462H62.3077C61.6957 73.8462 61.1087 73.603 60.6759 73.1702C60.2431 72.7375 60 72.1505 60 71.5385C60 70.9264 60.2431 70.3394 60.6759 69.9067C61.1087 69.4739 61.6957 69.2308 62.3077 69.2308H66.9231C67.5351 69.2308 68.1221 69.4739 68.5549 69.9067C68.9876 70.3394 69.2308 70.9264 69.2308 71.5385Z" fill="#090F1F"/>
</svg>
