<svg width="16" height="20" viewBox="0 0 16 20" fill="none" xmlns="http://www.w3.org/2000/svg">
<path d="M4.05088 0.106456C4.598 -0.058503 5.18511 -0.0310978 5.71448 0.184109C6.24386 0.399317 6.68355 0.789342 6.96038 1.28926L7.0529 1.47556L7.88061 3.31478C8.13133 3.87313 8.2126 4.4928 8.11436 5.09692C8.01612 5.70104 7.74268 6.26302 7.32797 6.71316L7.16168 6.8782L5.85759 8.09476C5.62253 8.31732 5.79883 9.17879 6.64905 10.6517C7.41424 11.977 8.0369 12.5959 8.34323 12.6297H8.397L8.46326 12.6172L11.0264 11.8332C11.3709 11.7276 11.7385 11.7234 12.0853 11.8212C12.4321 11.919 12.7434 12.1146 12.9819 12.3846L13.0957 12.5284L14.7924 14.879C15.1249 15.3397 15.2906 15.9 15.2622 16.4675C15.2338 17.035 15.013 17.5758 14.6361 18.0011L14.4836 18.1586L13.8059 18.8013C13.1973 19.3776 12.4361 19.767 11.6127 19.9233C10.7893 20.0795 9.9383 19.996 9.16094 19.6827C6.74157 18.7075 4.54351 16.4794 2.54674 13.021C0.546227 9.55389 -0.285236 6.53186 0.0861092 3.94369C0.19848 3.16133 0.520646 2.424 1.01839 1.81001C1.51614 1.19603 2.17088 0.728318 2.91309 0.456546L3.1544 0.376525L4.05088 0.106456Z" fill="#090F1F"/>
</svg>
