<svg width="17" height="23" viewBox="0 0 17 23" fill="none" xmlns="http://www.w3.org/2000/svg">
<path fill-rule="evenodd" clip-rule="evenodd" d="M0.113143 8.78958L10.6352 22.0033C10.8025 22.2135 11.0877 22.2894 11.3374 22.1903L15.9856 20.3458C16.2358 20.2465 16.3914 19.9949 16.3684 19.7266L16.0313 15.7976C15.5116 16.1818 15.1185 16.4452 14.3105 16.8996C14.0588 17.0412 13.74 16.9519 13.5985 16.7002C13.4569 16.4485 13.5462 16.1297 13.7979 15.9882C14.761 15.4465 15.0749 15.2103 15.8552 14.6233L15.926 14.5701L15.7174 12.1379C14.2438 13.3832 12.983 14.1517 10.9626 14.8756C10.6908 14.973 10.3914 14.8315 10.294 14.5597C10.1966 14.2878 10.338 13.9885 10.6099 13.8911C12.7367 13.1291 13.9374 12.3356 15.6068 10.8486L15.39 8.32109C12.9803 10.5654 10.7842 11.7602 7.55363 12.5387C7.27289 12.6064 6.99046 12.4336 6.92281 12.1529C6.85517 11.8721 7.02791 11.5897 7.30865 11.5221C10.6033 10.7282 12.7283 9.5002 15.2751 6.9816L14.8821 2.40075C13.8916 -2.07812 1.96181 0.253425 1.97889 4.93597C1.97929 5.04426 2.0128 5.15131 2.0681 5.24442C2.68312 6.27985 3.23365 6.97552 4.21841 8.08917C4.3737 8.26478 4.60873 8.35024 4.84023 8.31333C7.27034 7.92594 8.56368 7.39158 10.5684 6.10445L10.3121 3.50533C10.2915 3.29585 10.0436 3.19496 9.87927 3.32646C7.90775 4.90367 5.95476 5.77934 3.77562 5.21941C3.51707 5.15297 3.27116 4.97909 3.24682 4.71326C3.06205 2.69556 9.92109 -0.0425177 12.9937 1.77608C13.343 1.98283 13.6095 2.32463 13.665 2.72672C14.1738 6.41031 4.21866 11.1435 0.935085 8.11762C0.771194 7.96659 0.537479 7.90208 0.329936 7.98329C0.00469062 8.11056 -0.104419 8.51636 0.113143 8.78958Z" fill="#8BEA7C"/>
</svg>
